# xmcd
#
# Track frame offsets:
#	150
#	11031
#	21412
#	32705
#	44484
#	54090
#	65216
#	75355
#	85185
#	96628
#	109128
#	119979
#	133151
#	143305
#	152817
#	165059
#	175156
#	187241
#	199456
#	211777
#	223248
#	234581
#
# Disc length: 3281 seconds
#
# Revision: 1
# Processed by: cddbd v1.5.2PL0 Copyright (c) Steve Scherf et al.
# Submitted via: audiograbber 1.83.01
#
DISCID=410ccf16
DTITLE=V/A - The Memphis Jukebox (Vol. 1)
DYEAR=2010
DGENRE=Rock and Roll
TTITLE0=Carl Perkins - Jive After Five
TTITLE1=Dale Hawkins - Don't Treat Me This Way
TTITLE2=Carl McVoy - Tootsie
TTITLE3=Gene Vincent - Woman Love
TTITLE4=Ricky Nelson - Believe What You Say
TTITLE5=Warren Smith - Miss Froggie
TTITLE6=The Champs - Midnighter
TTITLE7=Ray Sharpe - Linda Lu
TTITLE8=Bo Diddley - Who Do You Love
TTITLE9=Chuck Berry - You Can't Catch Me
TTITLE10=Little Walter - Who
TTITLE11=Ray Charles - I've Got A Woman
TTITLE12=LaVern Baker - Whipper Snapper
TTITLE13=Clyde McPhatter - That's Enough For Me
TTITLE14=Big Joe Turner - Boogie Woogie Country Girl
TTITLE15=Little Richard - She's Got It
TTITLE16=The El Dorados - At My Front Door
TTITLE17=The Rays - Daddy Cool
TTITLE18=The Cleftones - You Baby You
TTITLE19=The Drifters - Fools Fall In Love
TTITLE20=Chuck Willis - CC Rider
TTITLE21=James Brown and The Famous Blue Flames - Try Me
EXTD=
EXTT0=
EXTT1=
EXTT2=
EXTT3=
EXTT4=
EXTT5=
EXTT6=
EXTT7=
EXTT8=
EXTT9=
EXTT10=
EXTT11=
EXTT12=
EXTT13=
EXTT14=
EXTT15=
EXTT16=
EXTT17=
EXTT18=
EXTT19=
EXTT20=
EXTT21=
PLAYORDER=
